<svg width="60" height="90" viewBox="0 0 60 90" fill="none" xmlns="http://www.w3.org/2000/svg">
<path d="M29.9562 89.9982C22.1191 89.9982 14.2819 89.9982 6.44469 89.9982C3.45297 89.9982 2.24261 88.621 2.57435 85.6634C3.17752 80.2731 4.42407 75.0597 6.74828 70.1358C7.69325 68.1333 8.8071 66.2233 10.1984 64.4982C10.7011 63.8729 10.4698 63.5653 9.90286 63.2698C9.56509 63.0928 9.19715 63.0868 8.82721 63.0888C7.68923 63.0928 6.54924 63.1109 5.41126 63.0808C2.63065 63.0003 0.46125 60.7927 0.439133 58.0463C0.417017 55.2516 2.57435 52.9616 5.37105 52.857C6.57538 52.8128 7.78172 52.8611 8.98805 52.839C10.2165 52.8168 10.7815 52.278 10.8116 51.0636C10.8438 49.7909 10.7956 48.5182 10.8317 47.2456C10.8458 46.7469 10.6649 46.5218 10.2044 46.4031C8.65631 46.001 7.5304 45.0561 6.81061 43.6406C6.63368 43.2928 6.43263 43.14 6.04459 43.1641C5.57814 43.1923 5.10766 43.1762 4.6392 43.1681C2.22653 43.1299 0.595957 41.5657 0.521567 39.1591C0.473313 37.619 0.481355 36.0769 0.521567 34.5388C0.563788 32.9444 1.23733 31.6275 2.72313 30.9881C3.57159 30.6222 3.73847 30.2121 3.63794 29.3636C3.14133 25.1655 3.60376 21.0539 5.20015 17.1414C9.24139 7.23734 16.598 1.39463 27.2279 0.180253C38.7705 -1.13868 49.1451 4.86688 54.1453 15.36C56.3027 19.8858 56.9842 24.681 56.4253 29.6471C56.3489 30.3347 56.4897 30.6162 57.1391 30.8856C58.7133 31.537 59.5035 32.8057 59.5397 34.5026C59.5718 36.0427 59.5618 37.5828 59.5437 39.1249C59.5156 41.4732 57.9091 43.0998 55.5769 43.1722C55.4421 43.1762 55.3074 43.1882 55.1747 43.1722C54.1112 43.0435 53.3471 43.2486 52.7761 44.3705C52.1267 45.6452 50.8038 46.2202 49.4265 46.5559C47.802 46.952 46.1835 47.3783 44.5489 47.7301C44.0422 47.8387 43.7246 48.0779 43.429 48.472C42.0558 50.3077 40.2905 51.6728 38.1955 52.5736C37.5883 52.8349 37.4275 53.1446 37.4335 53.7598C37.4536 55.7663 37.4275 55.7744 39.3295 56.5163C40.3911 56.9305 41.4366 57.3748 42.4137 57.9659C43.228 58.4585 43.4853 59.136 43.0752 59.7975C42.6047 60.5555 41.9432 60.646 41.1651 60.268C40.2925 59.8438 39.422 59.4195 38.5313 59.0375C37.4597 58.5771 37.4516 58.5972 37.4496 59.7131C37.4476 60.3826 37.4577 61.0521 37.4476 61.7216C37.3812 65.8956 34.1583 69.1627 30.0789 69.1929C26.0658 69.223 22.7845 66.0222 22.6237 61.9026C22.5895 61.034 22.5915 60.1614 22.6217 59.2909C22.6418 58.7379 22.4488 58.6817 21.9783 58.8586C18.8177 60.0448 16.0894 61.8724 13.8034 64.3494C13.0112 65.2079 13.6385 66.746 14.881 67.1099C15.4721 67.2829 16.0793 67.2064 16.6805 67.2165C19.1555 67.2567 20.6212 68.2459 21.4797 70.5661C21.6446 71.0104 21.8436 71.113 22.2598 71.1029C23.1625 71.0808 24.0673 71.0909 24.972 71.0969C27.1917 71.111 28.398 72.2992 28.4021 74.5008C28.4101 78.4857 28.4262 82.4727 28.386 86.4576C28.3779 87.1995 28.5428 87.3985 29.3048 87.3945C37.4778 87.3644 45.6487 87.3664 53.8216 87.3865C54.6922 87.3885 55.034 87.1271 54.9274 86.2163C54.27 80.5586 53.0094 75.0758 50.3152 70.0011C49.2898 68.071 48.0594 66.2836 46.5937 64.6611C46.3685 64.4118 46.1292 64.1765 45.9161 63.9192C45.329 63.2054 45.329 62.4877 45.9503 61.9709C46.6037 61.4281 47.2431 61.5367 47.8241 62.1197C49.2979 63.5955 50.5685 65.2381 51.6482 67.0154C55.2713 72.9788 56.9099 79.5614 57.5733 86.4274C57.7804 88.5747 56.3308 89.9962 54.075 89.9982C46.0327 90.0022 37.9945 89.9982 29.9562 89.9982ZM8.6925 23.8024C8.6925 22.5297 8.67642 21.257 8.69652 19.9843C8.73673 17.4188 10.2004 15.1047 12.6654 14.3949C14.6377 13.828 16.0894 12.6799 17.4927 11.3349C18.1944 10.6633 18.9303 10.028 19.64 9.36652C21.6828 7.46051 24.0794 6.5457 26.8801 6.78898C28.6474 6.94178 30.4126 7.10866 32.1759 7.30972C33.2154 7.42834 33.6898 7.94505 33.6094 8.74928C33.527 9.57562 32.8474 10.0099 31.8341 9.90736C30.2015 9.7425 28.5669 9.60377 26.9364 9.42483C24.8011 9.1916 22.9856 9.84303 21.4294 11.3087C20.4302 12.2497 19.3585 13.1182 18.3935 14.0913C17.1429 15.352 15.7616 16.2648 13.9883 16.695C12.1808 17.1293 11.3364 18.4523 11.3263 20.3462C11.3143 22.3226 11.3243 24.299 11.3243 26.2734C11.3243 27.6506 11.3143 27.5843 12.7096 27.3631C13.741 27.1982 14.3402 26.7659 14.6679 25.7345C15.1142 24.3312 15.8702 23.0544 16.6403 21.7958C17.9934 19.5822 20.2955 19.2203 22.2357 20.9333C23.7476 22.2683 25.3661 23.4525 27.1193 24.4458C29.0575 25.5455 29.0676 25.5274 29.339 23.3761C29.3511 23.2756 29.3591 23.1771 29.3752 23.0766C29.5762 21.7717 30.5011 21.3073 31.617 22.013C35.3265 24.3533 39.3375 25.0972 43.6421 24.3573C44.3639 24.2326 44.8907 24.49 45.1963 25.1555C45.3773 25.5496 45.5582 25.9477 45.6909 26.3598C45.8377 26.8142 46.0709 27.0977 46.5776 27.1701C47.1063 27.2445 47.6271 27.3852 48.1438 27.5259C48.5922 27.6466 48.7168 27.4978 48.7369 27.0434C48.9239 22.771 47.9226 18.8805 45.1219 15.551C43.24 13.3153 40.8736 11.8073 38.1332 10.8383C37.2385 10.5226 36.9047 9.86715 37.2083 9.13732C37.5481 8.31902 38.1593 8.07574 38.9998 8.37129C40.1699 8.78346 41.326 9.22578 42.3855 9.87721C48.2765 13.5023 51.3024 18.776 51.3426 25.6963C51.3527 27.351 51.2421 28.9595 52.8465 30.0211C52.8726 30.0392 52.8867 30.0733 52.9068 30.1015C53.0556 30.3226 53.1883 30.59 53.5241 30.4915C53.8377 30.399 53.7211 30.1055 53.7493 29.8964C54.0428 27.6948 54.0348 25.4973 53.7533 23.2897C52.2996 11.8817 42.4016 2.92467 30.863 2.59695C20.4241 2.30341 11.1112 8.58843 7.52235 18.398C6.15316 22.1417 5.77718 26.014 6.31199 29.9688C6.33813 30.1618 6.31199 30.397 6.53718 30.4855C6.74829 30.5679 6.9031 30.4493 7.0559 30.2885C8.08933 29.2007 9.0725 28.1392 8.71864 26.4081C8.54975 25.5717 8.69049 24.673 8.6925 23.8024ZM31.9004 25.25C30.8268 28.0266 29.2807 28.6096 26.6489 27.2103C24.576 26.1065 22.6498 24.7795 20.8685 23.2434C19.632 22.1778 19.453 22.1919 18.6327 23.5933C14.881 29.9869 14.5231 36.7122 16.9318 43.5964C18.3533 47.6597 21.3591 50.1287 25.5752 51.0315C28.6232 51.6849 31.7014 51.6809 34.7414 50.9812C38.4951 50.1166 41.2275 47.9231 42.8359 44.3966C43.6482 42.6172 44.0945 40.7333 44.3619 38.8052C44.8726 35.1078 44.7379 31.4626 43.4351 27.92C43.3104 27.5802 43.3365 27.1057 42.7052 27.1761C38.9193 27.5963 35.3285 26.8484 31.9004 25.25ZM11.3485 67.4377C11.1293 67.7654 10.9906 67.9483 10.876 68.1454C10.4216 68.9255 9.94106 69.6915 9.53292 70.4957C6.99961 75.4839 5.74702 80.826 5.14385 86.351C5.06142 87.105 5.34491 87.3865 6.0848 87.3825C8.62816 87.3644 11.1715 87.3483 13.7149 87.3925C14.4085 87.4046 14.5935 87.2377 14.5855 86.526C14.5453 82.5109 14.5553 78.4958 14.5714 74.4807C14.5794 72.3555 15.8139 71.1411 17.9371 71.0929C18.1884 71.0868 18.4598 71.1833 18.7514 70.9582C18.2708 69.9348 17.3802 69.8101 16.4231 69.8644C14.3422 69.981 12.5809 69.4201 11.3485 67.4377ZM13.4656 49.5979C13.4656 50.0322 13.4696 50.4685 13.4656 50.9028C13.4415 53.7236 11.7063 55.4668 8.89959 55.4889C7.79579 55.4969 6.68998 55.4627 5.58819 55.5029C4.12852 55.5572 3.07699 56.6168 3.07297 57.9679C3.06694 59.3592 4.15868 60.4208 5.6666 60.451C6.80458 60.4731 7.94256 60.461 9.07853 60.455C10.122 60.4489 11.0811 60.7405 11.8612 61.418C12.3055 61.8021 12.5468 61.8342 12.9891 61.408C15.255 59.2205 17.8868 57.604 20.8263 56.472C22.6378 55.7744 22.6056 55.7502 22.6257 53.7578C22.6317 53.1506 22.493 52.8249 21.8758 52.5635C20.0341 51.7894 18.3633 50.6796 17.1771 49.0691C16.403 48.0176 15.4219 47.6497 14.2678 47.3883C13.6867 47.2576 13.3811 47.2677 13.4535 47.9895C13.5098 48.5223 13.4676 49.0631 13.4656 49.5979ZM34.8097 58.2534C34.8097 56.9807 34.7957 55.71 34.8178 54.4374C34.8258 53.9568 34.7715 53.6934 34.1684 53.794C31.4058 54.2544 28.6373 54.2403 25.8728 53.794C25.4606 53.7276 25.2475 53.792 25.2515 54.2745C25.2756 56.9184 25.1731 59.5683 25.3219 62.2042C25.4666 64.7696 27.6964 66.6314 30.2076 66.5409C32.759 66.4485 34.7555 64.3836 34.8037 61.7679C34.8258 60.5957 34.8077 59.4235 34.8097 58.2534ZM25.7702 80.5646C25.7702 78.5903 25.7542 76.6159 25.7803 74.6415C25.7883 74.0202 25.6275 73.7207 24.9419 73.7287C22.6338 73.7569 20.3236 73.7528 18.0135 73.7307C17.3842 73.7247 17.2012 74.0001 17.2032 74.5772C17.2133 78.5601 17.2173 82.543 17.2012 86.5239C17.1992 87.1794 17.4566 87.3945 18.0999 87.3865C20.3417 87.3583 22.5855 87.3483 24.8273 87.3905C25.5993 87.4046 25.8004 87.111 25.7843 86.3872C25.7441 84.447 25.7702 82.5048 25.7702 80.5646ZM45.6045 44.7263C46.7947 44.4489 47.802 44.2337 48.7972 43.9784C50.4057 43.5682 51.2481 42.5549 51.2702 40.9002C51.3044 38.4252 51.3044 35.9482 51.2702 33.4732C51.2481 31.8205 50.4017 30.8193 48.7872 30.397C48.367 30.2864 47.9347 30.2181 47.5185 30.0934C46.9033 29.9105 46.7625 30.1296 46.8832 30.7167C47.1667 32.096 47.2833 33.4933 47.2712 34.9047C47.2431 38.202 46.7646 41.423 45.6045 44.7263ZM14.4427 44.7344C12.8383 39.8205 12.3598 34.9892 13.2967 29.9487C12.4623 30.1417 11.7184 30.2865 10.9906 30.4855C9.72392 30.8333 8.89356 31.7622 8.86742 33.0872C8.81314 35.8316 8.82118 38.578 8.86943 41.3244C8.88954 42.4484 9.4907 43.3612 10.5503 43.7331C11.7606 44.1573 13.0414 44.3845 14.4427 44.7344ZM6.17728 36.865C6.17728 35.8638 6.18131 34.8645 6.17527 33.8632C6.17326 33.6401 6.2557 33.2762 6.01644 33.238C5.33084 33.1294 4.6191 33.047 3.94757 33.3083C3.38059 33.5295 3.1735 34.0201 3.16747 34.5911C3.15541 35.8256 3.15943 37.058 3.15943 38.2925C3.15943 40.2669 3.53339 40.6027 5.50576 40.5504C6.03453 40.5363 6.20141 40.3815 6.18533 39.8648C6.15517 38.8675 6.17728 37.8663 6.17728 36.865ZM53.9061 36.8248C53.9061 37.8602 53.9021 38.8957 53.9101 39.9311C53.9121 40.1442 53.8317 40.3915 54.1252 40.5283C55.4542 41.1475 56.9159 40.2186 56.9239 38.7369C56.93 37.6009 56.9259 36.4669 56.9259 35.331C56.9259 33.4591 56.5902 33.1616 54.6902 33.1555C54.0931 33.1535 53.8558 33.2762 53.892 33.9216C53.9463 34.8866 53.9041 35.8577 53.9061 36.8248Z" fill="url(#paint0_linear_1_29)"/>
<path d="M30.0466 44.2799C28.5106 44.3121 27.1695 43.7532 25.935 42.9047C25.2555 42.4383 25.0524 41.7929 25.5068 41.0831C25.9551 40.3835 26.6367 40.2467 27.3324 40.6951C28.3477 41.3505 29.4053 41.7647 30.6357 41.5858C31.3816 41.4772 32.025 41.1374 32.6503 40.7413C33.3842 40.2749 34.0597 40.3533 34.5744 41.0751C35.0268 41.7064 34.8197 42.4403 34.0657 42.955C32.8554 43.7813 31.5385 44.3081 30.0466 44.2799Z" fill="url(#paint1_linear_1_29)"/>
<path d="M23.8442 34.1527C23.8301 35.0514 23.3335 35.6486 22.5815 35.6687C21.7632 35.6908 21.1721 34.9891 21.2023 34.0361C21.2304 33.1776 21.7793 32.5825 22.5473 32.5804C23.3576 32.5784 23.8582 33.1856 23.8442 34.1527Z" fill="url(#paint2_linear_1_29)"/>
<path d="M36.2212 34.1025C36.2232 33.1716 36.7761 32.5484 37.5743 32.5805C38.3403 32.6107 38.847 33.2058 38.853 34.0844C38.8611 34.9952 38.3102 35.6607 37.5401 35.6708C36.7661 35.6808 36.2212 35.0334 36.2212 34.1025Z" fill="url(#paint3_linear_1_29)"/>
<path d="M21.548 77.4181C21.9482 77.4181 22.3543 77.3698 22.7443 77.4281C23.5063 77.5427 23.9567 78.0252 23.9145 78.7993C23.8763 79.5151 23.436 79.9735 22.6941 80.0117C21.9301 80.0519 21.162 80.0519 20.396 80.0237C19.628 79.9956 19.1293 79.5955 19.0911 78.7973C19.0509 77.9468 19.5475 77.5085 20.3498 77.412C20.7438 77.3658 21.1479 77.404 21.548 77.404C21.548 77.408 21.548 77.412 21.548 77.4181Z" fill="url(#paint4_linear_1_29)"/>
<defs>
<linearGradient id="paint0_linear_1_29" x1="-0.561035" y1="48" x2="63.439" y2="48.5" gradientUnits="userSpaceOnUse">
<stop stop-color="#E79E49"/>
<stop offset="0.3125" stop-color="#DC799A"/>
<stop offset="0.661458" stop-color="#D2508A"/>
<stop offset="1" stop-color="#733D85"/>
</linearGradient>
<linearGradient id="paint1_linear_1_29" x1="25.1017" y1="42.4869" x2="35.4299" y2="42.7919" gradientUnits="userSpaceOnUse">
<stop stop-color="#E79E49"/>
<stop offset="0.3125" stop-color="#DC799A"/>
<stop offset="0.661458" stop-color="#D2508A"/>
<stop offset="1" stop-color="#733D85"/>
</linearGradient>
<linearGradient id="paint2_linear_1_29" x1="21.1565" y1="34.2278" x2="24.0177" y2="34.2569" gradientUnits="userSpaceOnUse">
<stop stop-color="#E79E49"/>
<stop offset="0.3125" stop-color="#DC799A"/>
<stop offset="0.661458" stop-color="#D2508A"/>
<stop offset="1" stop-color="#733D85"/>
</linearGradient>
<linearGradient id="paint3_linear_1_29" x1="36.1767" y1="34.2282" x2="39.0256" y2="34.257" gradientUnits="userSpaceOnUse">
<stop stop-color="#E79E49"/>
<stop offset="0.3125" stop-color="#DC799A"/>
<stop offset="0.661458" stop-color="#D2508A"/>
<stop offset="1" stop-color="#733D85"/>
</linearGradient>
<linearGradient id="paint4_linear_1_29" x1="19.0072" y1="78.8048" x2="24.2318" y2="78.9179" gradientUnits="userSpaceOnUse">
<stop stop-color="#E79E49"/>
<stop offset="0.3125" stop-color="#DC799A"/>
<stop offset="0.661458" stop-color="#D2508A"/>
<stop offset="1" stop-color="#733D85"/>
</linearGradient>
</defs>
</svg>
