<svg width="37" height="37" viewBox="0 0 37 37" fill="none" xmlns="http://www.w3.org/2000/svg">
<path d="M13.0848 15.791C15.0097 19.1759 17.8241 21.9903 21.209 23.9152L23.0272 21.3698C23.6317 20.5237 24.7727 20.2622 25.6854 20.7607C28.5772 22.3404 31.7729 23.3003 35.1066 23.5643C36.1757 23.649 37 24.5411 37 25.6135V34.787C37 35.8409 36.2029 36.7239 35.1545 36.8316C34.0653 36.9437 32.9664 37 31.8611 37C14.2647 37 0 22.7353 0 5.13889C0 4.03356 0.0563636 2.93474 0.16833 1.8454C0.276061 0.797041 1.15921 0 2.21311 0H11.3866C12.4589 0 13.3511 0.82436 13.4357 1.89335C13.6996 5.22703 14.6596 8.42293 16.2393 11.3147C16.7378 12.2273 16.4763 13.3684 15.6302 13.9728L13.0848 15.791ZM7.90207 14.4407L11.8075 11.6511C10.7001 9.26057 9.94124 6.72543 9.55272 4.11111H4.12976C4.11734 4.45299 4.11111 4.79561 4.11111 5.13889C4.11111 20.4647 16.5353 32.8889 31.8611 32.8889C32.2044 32.8889 32.5471 32.8827 32.8889 32.8702V27.4472C30.2746 27.0587 27.7395 26.2998 25.3489 25.1925L22.5593 29.098C21.4308 28.6596 20.341 28.1436 19.2963 27.557L19.1769 27.4889C15.1488 25.1984 11.8016 21.8512 9.51105 17.8231L9.4431 17.7037C8.85634 16.659 8.3405 15.5692 7.90207 14.4407Z" fill="#D2508A"/>
</svg>
