<svg width="25" height="25" viewBox="0 0 25 25" fill="none" xmlns="http://www.w3.org/2000/svg">
<path d="M2.77778 2.57778H2.57778V2.77778V22.2222V22.4222H2.77778H22.2222H22.4223V22.2222V2.77778V2.57778H22.2222H2.77778ZM12.3 10.3187V10.7898L12.6389 10.4626C13.4281 9.70082 14.3269 9.22778 15.2778 9.22778C18.026 9.22778 19.9389 11.4514 19.9389 14.2361V19.9389H17.5611V14.2361C17.5611 12.7833 16.3834 11.6056 14.9306 11.6056C13.4778 11.6056 12.3 12.7833 12.3 14.2361V19.9389H9.92225V9.92222H12.3V10.3187ZM1.38889 0.2H23.6111C24.2678 0.2 24.8 0.732288 24.8 1.38889V23.6111C24.8 24.2677 24.2678 24.8 23.6111 24.8H1.38889C0.732275 24.8 0.2 24.2677 0.2 23.6111V1.38889C0.2 0.732289 0.732278 0.2 1.38889 0.2ZM6.25 8.13333C5.20986 8.13333 4.36667 7.29014 4.36667 6.25C4.36667 5.20986 5.20986 4.36667 6.25 4.36667C7.29013 4.36667 8.13333 5.20986 8.13333 6.25C8.13333 7.29014 7.29013 8.13333 6.25 8.13333ZM7.43889 9.92222V19.9389H5.06111V9.92222H7.43889Z" fill="#733D85" stroke="#F9E6EC" stroke-width="0.4"/>
</svg>
