<svg width="60" height="60" viewBox="0 0 60 60" fill="none" xmlns="http://www.w3.org/2000/svg">
<rect width="60" height="60" rx="5" fill="white"/>
<path d="M30.107 12.0008C35.2245 12.0008 40.3419 12.0016 45.4602 12C46.1052 12 46.7219 12.0881 47.249 12.5012C47.9393 13.0419 48.2068 13.7654 48.206 14.6246C48.2012 19.8762 48.2036 25.1286 48.2036 30.3803C48.2036 32.616 48.2044 34.851 48.2036 37.0868C48.2028 38.7633 47.2158 39.7575 45.5466 39.7583C41.7621 39.7607 37.9776 39.7648 34.1939 39.7502C33.8083 39.7486 33.7162 39.8472 33.7784 40.2199C33.8811 40.8334 33.9966 41.4388 34.2941 41.9917C34.7193 42.783 35.3684 43.2583 36.2761 43.3238C36.7991 43.3618 37.3253 43.361 37.8499 43.3739C38.9484 43.4006 39.7333 44.1369 39.7494 45.1595C39.7656 46.1674 39.0292 46.9143 37.9404 46.9935C37.8466 47 37.7521 46.9976 37.6575 46.9976C32.6209 46.9976 27.5843 46.9951 22.5469 47C21.7192 47.0008 21.0337 46.764 20.6433 45.9734C20.0896 44.8523 20.8324 43.504 22.0781 43.3965C22.6673 43.3456 23.2622 43.3666 23.8531 43.3319C24.9379 43.268 25.6403 42.6691 26.0558 41.6999C26.2748 41.189 26.371 40.6466 26.4373 40.097C26.468 39.8456 26.4147 39.7098 26.1293 39.7575C26.0509 39.7704 25.9677 39.7591 25.8876 39.7591C22.171 39.7591 18.4536 39.7599 14.737 39.7591C12.9821 39.7591 12 38.7843 12 37.0408C12 29.6075 12 22.1734 12 14.7402C12 12.9619 12.9643 12.0016 14.7539 12.0016C19.8714 12 24.9896 12.0008 30.107 12.0008ZM30.061 33.6968C34.7476 33.6968 39.4334 33.6927 44.12 33.7048C44.4772 33.7057 44.5904 33.6321 44.5896 33.249C44.5759 27.5261 44.5767 21.8032 44.5888 16.0804C44.5896 15.7102 44.4958 15.6156 44.1248 15.6156C34.7791 15.6261 25.4334 15.6261 16.0876 15.6164C15.7255 15.6164 15.6188 15.6972 15.6196 16.0755C15.6326 21.7984 15.6326 27.5212 15.6196 33.2441C15.6188 33.6151 15.7142 33.7065 16.0828 33.7057C20.7419 33.6927 25.401 33.6968 30.061 33.6968ZM30.0868 34.9343C24.6339 34.9343 19.1803 34.9343 13.7274 34.9343C13.6328 34.9343 13.5382 34.9416 13.4445 34.9327C13.2715 34.9165 13.2076 34.982 13.2092 35.1598C13.2181 35.914 13.1947 36.6681 13.2238 37.4215C13.2472 38.0382 13.7314 38.4957 14.3457 38.5402C14.5333 38.5539 14.7224 38.5458 14.9107 38.5458C25.0898 38.5458 35.2689 38.5458 45.448 38.5458C46.5861 38.5458 46.9919 38.136 46.9927 36.985C46.9927 36.4466 46.9701 35.9067 47.0008 35.37C47.021 35.0216 46.9329 34.923 46.5667 34.9238C41.0742 34.9383 35.5801 34.9343 30.0868 34.9343ZM30.1264 13.2133C24.9961 13.2133 19.8649 13.2133 14.7345 13.2133C13.6393 13.2133 13.2141 13.636 13.2141 14.7192C13.2141 20.792 13.2141 26.8649 13.2141 32.9378C13.2141 33.7073 13.2149 33.6838 13.9933 33.7154C14.3643 33.7307 14.4298 33.6127 14.429 33.2667C14.4177 27.3014 14.4209 21.336 14.4209 15.3707C14.4209 14.5704 14.5696 14.4177 15.3561 14.4177C25.1868 14.4169 35.0167 14.4169 44.8475 14.4177C45.6396 14.4177 45.7883 14.568 45.7883 15.3642C45.7883 21.1946 45.7883 27.0257 45.7883 32.8561C45.7883 33.717 45.7883 33.7073 46.6557 33.7105C46.9046 33.7113 47.0016 33.6652 47.0016 33.3856C46.9935 27.0839 46.9968 20.7815 46.9927 14.4799C46.9919 13.733 46.5441 13.2731 45.8021 13.2197C45.655 13.2092 45.5062 13.2125 45.3583 13.2125C40.2797 13.2133 35.2027 13.2133 30.1264 13.2133ZM33.7453 43.3375C33.5254 43.0069 33.3152 42.7305 33.1641 42.4144C32.8125 41.6764 32.6241 40.8997 32.5692 40.0865C32.5578 39.9167 32.5708 39.7527 32.2951 39.7551C30.8297 39.7688 29.3642 39.764 27.8987 39.7583C27.733 39.7575 27.6619 39.8052 27.649 39.9798C27.5633 41.189 27.2513 42.3239 26.4518 43.3375C28.9067 43.3375 31.2928 43.3375 33.7453 43.3375ZM30.1014 44.5823C27.7734 44.5823 25.4455 44.5815 23.1175 44.5831C22.808 44.5831 22.4976 44.5742 22.1904 44.6033C21.8614 44.6349 21.6876 44.8547 21.6804 45.1764C21.6731 45.5022 21.8469 45.7083 22.1751 45.7609C22.3068 45.7819 22.4426 45.7859 22.5768 45.7867C27.5964 45.7875 32.6169 45.7883 37.6365 45.7859C37.7965 45.7859 37.963 45.7827 38.1166 45.7423C38.3987 45.6679 38.5386 45.4594 38.5297 45.1724C38.5208 44.8887 38.3769 44.6818 38.0924 44.6163C37.9372 44.5807 37.7715 44.5839 37.6106 44.5839C35.1081 44.5815 32.6047 44.5823 30.1014 44.5823Z" fill="url(#paint0_linear_1_139)"/>
<path d="M28.9083 16.8151C31.6146 16.8151 34.3208 16.8143 37.0262 16.8151C37.7876 16.8151 37.9461 16.9752 37.9461 17.7366C37.9453 20.3345 37.9509 22.9333 37.9356 25.5312C37.934 25.8327 38.031 25.9531 38.309 26.0243C38.8166 26.1536 39.3178 26.3096 39.8173 26.4688C40.4268 26.6636 40.5375 27.1349 40.0946 27.6037C40.076 27.6231 40.055 27.6401 40.038 27.6611C39.8464 27.8995 39.4301 28.075 39.4584 28.332C39.4859 28.5761 39.8432 28.7855 40.059 29.0061C40.2942 29.2462 40.54 29.4774 40.7711 29.7215C41.092 30.0618 41.1042 30.3398 40.7816 30.6745C40.2498 31.2274 39.7066 31.7698 39.1545 32.3024C38.8506 32.595 38.541 32.5837 38.2306 32.2855C37.8329 31.9031 37.4401 31.5151 37.061 31.1142C36.8896 30.9332 36.77 30.879 36.5881 31.1029C36.42 31.3106 36.2163 31.4917 36.0207 31.676C35.5939 32.0785 35.117 31.9581 34.9351 31.3947C34.7702 30.883 34.6029 30.3706 34.4752 29.8492C34.4032 29.5566 34.2634 29.4895 33.9781 29.4895C29.576 29.4992 25.1731 29.496 20.771 29.496C20.0161 29.496 19.8423 29.323 19.8423 28.5729C19.8415 24.9516 19.8398 21.3304 19.8398 17.7091C19.8398 16.9849 20.012 16.8151 20.75 16.8143C23.47 16.8151 26.1891 16.8151 28.9083 16.8151ZM36.736 25.532C36.736 24.1393 36.7255 22.7805 36.7441 21.4225C36.7482 21.1113 36.6568 21.0467 36.361 21.0475C31.3793 21.0564 26.3977 21.0572 21.4152 21.0459C21.1049 21.045 21.0426 21.1307 21.0442 21.4266C21.058 23.5807 21.0604 25.7349 21.0418 27.889C21.0386 28.2374 21.1396 28.2972 21.4637 28.2956C25.49 28.2835 29.5154 28.2875 33.5416 28.2875C33.6758 28.2875 33.8091 28.2875 33.9861 28.2875C33.7388 27.4639 33.4963 26.6717 33.2651 25.8763C33.1657 25.5336 32.9863 25.1723 33.2967 24.8498C33.6127 24.5216 33.9724 24.7059 34.3159 24.8077C35.1129 25.0446 35.9083 25.2838 36.736 25.532ZM28.8445 19.8455C28.939 19.8455 29.0328 19.8455 29.1274 19.8455C31.5361 19.8455 33.9449 19.8407 36.3537 19.852C36.6471 19.8536 36.7659 19.7914 36.7376 19.4761C36.7077 19.1423 36.7037 18.8012 36.7385 18.4681C36.7764 18.1052 36.6504 18.0268 36.2971 18.0276C31.3583 18.0405 26.4203 18.0365 21.4815 18.0365C21.4144 18.0365 21.3457 18.0438 21.2795 18.0349C21.1024 18.0123 21.045 18.0874 21.0491 18.262C21.0588 18.6654 21.0733 19.0703 21.045 19.4729C21.024 19.7728 21.1089 19.8544 21.4169 19.8528C23.8927 19.839 26.3686 19.8455 28.8445 19.8455ZM34.6554 26.2029C35.0572 27.5633 35.433 28.8388 35.8097 30.1143C35.8469 30.1313 35.8841 30.1475 35.9213 30.1644C35.9795 30.0747 36.0239 29.9705 36.0983 29.8969C36.6237 29.3707 37.0109 29.3747 37.5468 29.9026C37.7286 30.082 37.9073 30.2639 38.0892 30.4441C38.7253 31.0754 38.7196 31.0698 39.3517 30.4158C39.5102 30.2526 39.5191 30.1539 39.3542 29.9963C38.9557 29.6156 38.562 29.2284 38.187 28.8251C37.8693 28.4823 37.879 28.1752 38.1813 27.8211C38.3058 27.6756 38.4424 27.5407 38.6032 27.3693C37.2752 26.9765 36.0158 26.6046 34.6554 26.2029Z" fill="url(#paint1_linear_1_139)"/>
<path d="M30.0625 37.339C29.5104 37.339 28.9592 37.3447 28.4071 37.3374C27.969 37.3309 27.6885 37.0876 27.6909 36.736C27.6934 36.3812 27.9714 36.1354 28.4087 36.133C29.5395 36.1265 30.6696 36.1265 31.8004 36.133C32.2353 36.1354 32.515 36.3844 32.5166 36.7376C32.5182 37.086 32.2353 37.3309 31.7988 37.3366C31.22 37.3447 30.6413 37.339 30.0625 37.339Z" fill="url(#paint2_linear_1_139)"/>
<path d="M25.2628 27.0815C24.5232 27.0815 23.7836 27.0848 23.0432 27.0807C22.4701 27.0775 22.2672 26.8738 22.2631 26.3007C22.2591 25.6015 22.2567 24.9015 22.2639 24.2023C22.2696 23.6947 22.4668 23.4764 22.9696 23.4724C24.503 23.4611 26.0363 23.4619 27.5697 23.4716C28.0781 23.4748 28.2794 23.6809 28.2891 24.1894C28.3029 24.9152 28.3029 25.6419 28.2883 26.3678C28.2786 26.8689 28.0628 27.0742 27.5624 27.0791C26.7962 27.0872 26.0299 27.0815 25.2628 27.0815ZM25.2596 25.8739C25.5821 25.8739 25.9046 25.8739 26.2271 25.8739C27.1163 25.8739 27.1057 25.8739 27.092 24.9751C27.088 24.718 26.9991 24.6606 26.7622 24.6639C25.9693 24.676 25.1763 24.6687 24.3833 24.6687C23.4085 24.6687 23.415 24.6687 23.4667 25.6314C23.4772 25.8294 23.5419 25.8804 23.727 25.8771C24.2378 25.8674 24.7487 25.8739 25.2596 25.8739Z" fill="url(#paint3_linear_1_139)"/>
<defs>
<linearGradient id="paint0_linear_1_139" x1="10" y1="27" x2="49.5" y2="28" gradientUnits="userSpaceOnUse">
<stop stop-color="#E79E49"/>
<stop offset="0.291667" stop-color="#DC799A"/>
<stop offset="0.671875" stop-color="#D2508A"/>
<stop offset="1" stop-color="#733D85"/>
</linearGradient>
<linearGradient id="paint1_linear_1_139" x1="18.67" y1="23.5435" x2="41.7643" y2="24.3058" gradientUnits="userSpaceOnUse">
<stop stop-color="#E79E49"/>
<stop offset="0.291667" stop-color="#DC799A"/>
<stop offset="0.671875" stop-color="#D2508A"/>
<stop offset="1" stop-color="#733D85"/>
</linearGradient>
<linearGradient id="paint2_linear_1_139" x1="27.4244" y1="36.648" x2="32.6429" y2="37.1561" gradientUnits="userSpaceOnUse">
<stop stop-color="#E79E49"/>
<stop offset="0.291667" stop-color="#DC799A"/>
<stop offset="0.671875" stop-color="#D2508A"/>
<stop offset="1" stop-color="#733D85"/>
</linearGradient>
<linearGradient id="paint3_linear_1_139" x1="21.9256" y1="25.0153" x2="28.5084" y2="25.2841" gradientUnits="userSpaceOnUse">
<stop stop-color="#E79E49"/>
<stop offset="0.291667" stop-color="#DC799A"/>
<stop offset="0.671875" stop-color="#D2508A"/>
<stop offset="1" stop-color="#733D85"/>
</linearGradient>
</defs>
</svg>
